<svg width="20" height="20" viewBox="0 0 20 20" fill="none" xmlns="http://www.w3.org/2000/svg">
<g clip-path="url(#clip0_7_826)">
<path d="M15.9211 3.42484C14.7073 1.33015 12.5514 0.0504272 10.1539 0.001521C10.0516 -0.000588379 9.94856 -0.000588379 9.84618 0.001521C7.44876 0.0504272 5.29282 1.33015 4.07899 3.42484C2.83829 5.56594 2.80434 8.13781 3.98817 10.3046L8.94766 19.3823C8.94989 19.3863 8.95212 19.3903 8.95442 19.3943C9.17262 19.7736 9.56352 20 10.0001 20C10.4367 20 10.8276 19.7735 11.0457 19.3943C11.0481 19.3903 11.0503 19.3863 11.0525 19.3823L16.012 10.3046C17.1957 8.13781 17.1618 5.56594 15.9211 3.42484ZM10 9.06246C8.44922 9.06246 7.18755 7.80078 7.18755 6.24996C7.18755 4.69914 8.44922 3.43746 10 3.43746C11.5509 3.43746 12.8125 4.69914 12.8125 6.24996C12.8125 7.80078 11.5509 9.06246 10 9.06246Z" fill="black"/>
</g>
<defs>
<clipPath id="clip0_7_826">
<rect width="20" height="20" fill="white"/>
</clipPath>
</defs>
</svg>
