<svg width="12" height="12" viewBox="0 0 12 12" fill="none" xmlns="http://www.w3.org/2000/svg">
<g clip-path="url(#clip0_17_8)">
<path d="M9.55266 2.05494C8.82439 0.798129 7.53082 0.030293 6.09235 0.000949219C6.03094 -0.000316406 5.96914 -0.000316406 5.90771 0.000949219C4.46925 0.030293 3.17569 0.798129 2.44739 2.05494C1.70297 3.3396 1.68261 4.88272 2.3929 6.18282L5.3686 11.6294C5.36993 11.6318 5.37127 11.6342 5.37265 11.6366C5.50357 11.8642 5.73811 12 6.00007 12C6.26201 12 6.49655 11.8641 6.62745 11.6366C6.62883 11.6342 6.63017 11.6318 6.6315 11.6294L9.6072 6.18282C10.3174 4.88272 10.2971 3.3396 9.55266 2.05494ZM6.00003 5.43751C5.06954 5.43751 4.31253 4.6805 4.31253 3.75001C4.31253 2.81952 5.06954 2.06251 6.00003 2.06251C6.93052 2.06251 7.68753 2.81952 7.68753 3.75001C7.68753 4.6805 6.93054 5.43751 6.00003 5.43751Z" fill="#34495E"/>
</g>
<defs>
<clipPath id="clip0_17_8">
<rect width="12" height="12" fill="white"/>
</clipPath>
</defs>
</svg>
